<svg width="107" height="24" viewBox="0 0 107 24" fill="none"
    xmlns="http://www.w3.org/2000/svg">
    <mask id="mask0_367_44" style="mask-type:luminance" maskUnits="userSpaceOnUse" x="0" y="0" width="24" height="24">
        <path d="M0 0.105373H23.8432V23.901H0V0.105373Z" fill="white"/>
    </mask>
    <g mask="url(#mask0_367_44)">
        <path d="M0 23.901C13.1662 23.901 23.8432 13.2485 23.8432 0.105373H0V23.901Z" fill="black"/>
    </g>
    <mask id="mask1_367_44" style="mask-type:luminance" maskUnits="userSpaceOnUse" x="15" y="15" width="9" height="9">
        <path d="M15.3419 15.4167H23.9424V24H15.3419V15.4167Z" fill="white"/>
    </mask>
    <g mask="url(#mask1_367_44)">
        <path d="M23.8464 15.4167C19.1494 15.4167 15.3419 19.2166 15.3419 23.9042H23.8464V15.4167Z" fill="black"/>
    </g>
    <path d="M32.6676 23.4529V6.18676H36.5797L36.5484 12.1684H37.1743C37.3503 10.6769 37.6437 9.46164 38.0506 8.52258C38.4653 7.57563 39.0521 6.88909 39.8032 6.45507C40.5543 6.01315 41.4815 5.7922 42.5886 5.7922C42.8077 5.7922 43.0346 5.80403 43.2771 5.82376C43.5158 5.84744 43.7857 5.88689 44.0908 5.95002L43.9187 10.9847C43.551 10.8387 43.1754 10.7321 42.792 10.669C42.4165 10.598 42.0644 10.5585 41.7436 10.5585C40.9181 10.5585 40.1983 10.7598 39.5841 11.1583C38.9778 11.5489 38.4927 12.1171 38.1288 12.8628C37.7728 13.6125 37.5186 14.5318 37.3621 15.6247V23.4529H32.6676Z" fill="black"/>
    <path d="M52.4989 23.9106C51.0789 23.9106 49.8231 23.7133 48.7277 23.3266C47.6323 22.9281 46.7013 22.3481 45.9423 21.5905C45.1795 20.833 44.6005 19.9137 44.2054 18.8286C43.8181 17.7475 43.6264 16.5165 43.6264 15.1355C43.6264 13.7782 43.8141 12.5274 44.1897 11.3792C44.5731 10.2232 45.1325 9.22491 45.8641 8.38054C46.5917 7.52828 47.4915 6.87725 48.5556 6.4235C49.6197 5.96186 50.8246 5.72907 52.1703 5.72907C53.4926 5.72907 54.6623 5.95003 55.6755 6.39194C56.6848 6.82596 57.5259 7.47304 58.1949 8.33319C58.8717 9.18545 59.3685 10.2271 59.6815 11.4581C60.0023 12.6813 60.1079 14.0899 59.9944 15.6879L46.6621 15.7826V13.1942L57.2247 13.0995L55.6599 14.441C55.8164 13.285 55.742 12.3341 55.4408 11.5844C55.1474 10.8387 54.7132 10.2902 54.142 9.94302C53.5669 9.58791 52.9214 9.40641 52.2016 9.40641C51.3762 9.40641 50.6524 9.62736 50.0265 10.0693C49.4084 10.5033 48.935 11.1425 48.6025 11.9947C48.2661 12.8391 48.1018 13.8492 48.1018 15.025C48.1018 16.8992 48.5008 18.2683 49.3067 19.1285C50.1087 19.9926 51.1727 20.4226 52.4989 20.4226C53.1014 20.4226 53.6139 20.3437 54.0325 20.1859C54.4589 20.0202 54.807 19.8032 55.0809 19.5388C55.3626 19.2784 55.5738 18.9825 55.7225 18.655C55.879 18.3196 55.9963 17.9763 56.0824 17.6291L60.1979 18.4814C60.0414 19.2942 59.7675 20.0281 59.3842 20.6909C59.0086 21.3459 58.5079 21.9141 57.8819 22.3955C57.2638 22.8808 56.5088 23.2556 55.6129 23.516C54.7249 23.7764 53.6882 23.9106 52.4989 23.9106Z" fill="black"/>
    <path d="M67.3897 23.9106C65.9814 23.9106 64.7452 23.5476 63.6811 22.8216C62.617 22.0877 61.7876 21.0342 61.193 19.6651C60.6062 18.288 60.3167 16.6585 60.3167 14.7725C60.3167 13.0167 60.5749 11.4581 61.0991 10.1008C61.6194 8.74354 62.3901 7.68216 63.4151 6.91276C64.4361 6.14731 65.6997 5.76064 67.2019 5.76064C68.3051 5.76064 69.2362 5.97765 69.9873 6.40772C70.7384 6.82991 71.3566 7.44543 71.8495 8.25428C72.3385 9.06708 72.7258 10.0456 73.0074 11.1898H73.7273C73.5903 10.4875 73.4612 9.79703 73.3361 9.12232C73.2187 8.43973 73.1248 7.79264 73.0544 7.18107C72.9801 6.5616 72.9449 6.02105 72.9449 5.55546V0H77.6706V23.4529H73.7273V18.4183H73.1013C72.8588 19.6493 72.4911 20.6712 71.9903 21.4801C71.4896 22.2929 70.8558 22.9005 70.0969 23.3108C69.334 23.7094 68.4303 23.9106 67.3897 23.9106ZM68.9858 20.0281C69.6626 20.0281 70.2533 19.8781 70.7541 19.5704C71.2548 19.2666 71.6656 18.8681 71.9903 18.3709C72.3111 17.8777 72.5536 17.345 72.7101 16.7769C72.8666 16.2087 72.9449 15.6642 72.9449 15.1355V14.5357C72.9449 14.1057 72.8862 13.6598 72.7727 13.1942C72.6671 12.7326 72.5067 12.2907 72.2876 11.8685C72.0685 11.4384 71.7947 11.0557 71.4739 10.7164C71.1492 10.3691 70.7697 10.1008 70.3316 9.91145C69.8934 9.71417 69.424 9.61158 68.9232 9.61158C68.1408 9.61158 67.4758 9.83254 66.9359 10.2744C66.3921 10.7085 65.9735 11.3122 65.6841 12.0894C65.3907 12.8707 65.2459 13.7861 65.2459 14.8356C65.2459 15.8694 65.3946 16.7769 65.6997 17.566C66.0009 18.3551 66.4352 18.9667 66.9985 19.3968C67.5697 19.819 68.2347 20.0281 68.9858 20.0281Z" fill="black"/>
    <path d="M87.4707 23.9106C85.7573 23.9106 84.2511 23.5673 82.9484 22.8847C81.6418 22.1903 80.6207 21.1723 79.8813 19.8229C79.138 18.4774 78.7703 16.7926 78.7703 14.7725C78.7703 12.7523 79.1459 11.0754 79.897 9.73784C80.6481 8.40422 81.6731 7.40202 82.9797 6.73915C84.2824 6.0684 85.769 5.72907 87.4394 5.72907C89.1608 5.72907 90.6708 6.07234 91.9774 6.75494C93.2802 7.42964 94.309 8.43973 95.0602 9.78519C95.8113 11.1346 96.1868 12.8154 96.1868 14.8356C96.1868 16.8992 95.8034 18.5998 95.0445 19.9334C94.2816 21.271 93.2371 22.2692 91.9149 22.9321C90.5887 23.5831 89.106 23.9106 87.4707 23.9106ZM87.6116 20.3911C88.1319 20.3911 88.617 20.3082 89.0669 20.1386C89.5246 19.961 89.9314 19.673 90.2874 19.2705C90.6513 18.8602 90.9368 18.3078 91.1481 17.6133C91.3554 16.9189 91.4611 16.0824 91.4611 15.1039C91.4611 14.0544 91.3437 13.1627 91.1168 12.4367C90.886 11.7107 90.5769 11.1267 90.1935 10.6848C89.818 10.235 89.3798 9.90751 88.8791 9.70628C88.3783 9.50899 87.8541 9.40641 87.3143 9.40641C86.8135 9.40641 86.3284 9.49716 85.859 9.67471C85.3895 9.84437 84.9827 10.1324 84.6384 10.5428C84.2941 10.9531 84.0125 11.5015 83.7934 12.1841C83.5743 12.8588 83.4648 13.6993 83.4648 14.7094C83.4648 15.7628 83.5743 16.6506 83.7934 17.3766C84.0125 18.0947 84.3137 18.6787 84.701 19.1285C85.0961 19.5822 85.546 19.9097 86.0468 20.107C86.5475 20.2964 87.0678 20.3911 87.6116 20.3911Z" fill="black"/>
    <path d="M103.683 23.8475C102.744 23.8475 101.922 23.7251 101.226 23.4845C100.537 23.2438 99.9583 22.865 99.4888 22.3481C99.0194 21.8352 98.6634 21.1723 98.4248 20.3595C98.1822 19.5506 98.0648 18.5879 98.0648 17.4713V9.89566H95.6237L95.7176 6.24989H97.2824C98.0023 6.23016 98.5343 6.1039 98.8786 5.87111C99.2306 5.64226 99.4419 5.23192 99.5045 4.64007L99.8957 2.33582H102.572V6.18676H106.875V10.0377H102.572V17.2346C102.572 18.1421 102.783 18.7457 103.213 19.0496C103.651 19.3573 104.187 19.5072 104.825 19.5072C105.208 19.5072 105.596 19.4599 105.983 19.3652C106.378 19.2626 106.718 19.1206 107 18.9391V23.3582C106.331 23.5555 105.709 23.6896 105.138 23.7528C104.575 23.8159 104.089 23.8475 103.683 23.8475Z" fill="black"/>
</svg>