<svg width="45" height="45" viewBox="0 0 45 45" fill="none" xmlns="http://www.w3.org/2000/svg">
<path d="M25 9C25 4.02944 29.0294 0 34 0H36C40.9706 0 45 4.02944 45 9V11C45 15.9706 40.9706 20 36 20H34C29.0294 20 25 15.9706 25 11V9Z" fill="#29B3FF"/>
<path d="M0 9C0 4.02944 4.02944 0 9 0H11C15.9706 0 20 4.02944 20 9V11C20 15.9706 15.9706 20 11 20H9C4.02944 20 0 15.9706 0 11V9Z" fill="#103851"/>
<path d="M0 34C0 29.0294 4.02944 25 9 25H11C15.9706 25 20 29.0294 20 34V36C20 40.9706 15.9706 45 11 45H9C4.02944 45 0 40.9706 0 36V34Z" fill="#29B3FF"/>
<path d="M25 34C25 29.0294 29.0294 25 34 25H36C40.9706 25 45 29.0294 45 34V36C45 40.9706 40.9706 45 36 45H34C29.0294 45 25 40.9706 25 36V34Z" fill="#103851"/>
</svg>
